<mxfile host="app.diagrams.net" agent="Mozilla/5.0 (Windows NT 10.0; Win64; x64) AppleWebKit/537.36 (KHTML, like Gecko) Chrome/136.0.0.0 Safari/537.36" version="27.0.6">
  <diagram id="C5RBs43oDa-KdzZeNtuy" name="Page-1">
    <mxGraphModel dx="1226" dy="706" grid="1" gridSize="10" guides="1" tooltips="1" connect="1" arrows="1" fold="1" page="1" pageScale="1" pageWidth="827" pageHeight="1169" math="0" shadow="0">
      <root>
        <mxCell id="WIyWlLk6GJQsqaUBKTNV-0" />
        <mxCell id="WIyWlLk6GJQsqaUBKTNV-1" parent="WIyWlLk6GJQsqaUBKTNV-0" />
        <mxCell id="HHM14vcZ1wzpaSUinclN-2" value="" style="edgeStyle=orthogonalEdgeStyle;rounded=0;orthogonalLoop=1;jettySize=auto;html=1;" edge="1" parent="WIyWlLk6GJQsqaUBKTNV-1" source="HHM14vcZ1wzpaSUinclN-0" target="HHM14vcZ1wzpaSUinclN-1">
          <mxGeometry relative="1" as="geometry" />
        </mxCell>
        <mxCell id="HHM14vcZ1wzpaSUinclN-0" value="开始" style="strokeWidth=2;html=1;shape=mxgraph.flowchart.terminator;whiteSpace=wrap;" vertex="1" parent="WIyWlLk6GJQsqaUBKTNV-1">
          <mxGeometry x="210" y="50" width="100" height="60" as="geometry" />
        </mxCell>
        <mxCell id="HHM14vcZ1wzpaSUinclN-4" value="" style="edgeStyle=orthogonalEdgeStyle;rounded=0;orthogonalLoop=1;jettySize=auto;html=1;" edge="1" parent="WIyWlLk6GJQsqaUBKTNV-1" source="HHM14vcZ1wzpaSUinclN-1">
          <mxGeometry relative="1" as="geometry">
            <mxPoint x="260" y="315" as="targetPoint" />
          </mxGeometry>
        </mxCell>
        <mxCell id="HHM14vcZ1wzpaSUinclN-1" value="提交修改权限表单" style="whiteSpace=wrap;html=1;strokeWidth=2;" vertex="1" parent="WIyWlLk6GJQsqaUBKTNV-1">
          <mxGeometry x="192.5" y="190" width="135" height="50" as="geometry" />
        </mxCell>
        <mxCell id="HHM14vcZ1wzpaSUinclN-7" value="" style="edgeStyle=orthogonalEdgeStyle;rounded=0;orthogonalLoop=1;jettySize=auto;html=1;" edge="1" parent="WIyWlLk6GJQsqaUBKTNV-1" source="HHM14vcZ1wzpaSUinclN-5" target="HHM14vcZ1wzpaSUinclN-6">
          <mxGeometry relative="1" as="geometry" />
        </mxCell>
        <mxCell id="HHM14vcZ1wzpaSUinclN-10" value="" style="edgeStyle=orthogonalEdgeStyle;rounded=0;orthogonalLoop=1;jettySize=auto;html=1;" edge="1" parent="WIyWlLk6GJQsqaUBKTNV-1" source="HHM14vcZ1wzpaSUinclN-5" target="HHM14vcZ1wzpaSUinclN-9">
          <mxGeometry relative="1" as="geometry" />
        </mxCell>
        <mxCell id="HHM14vcZ1wzpaSUinclN-5" value="是否有编辑用户的权限" style="strokeWidth=2;html=1;shape=mxgraph.flowchart.decision;whiteSpace=wrap;" vertex="1" parent="WIyWlLk6GJQsqaUBKTNV-1">
          <mxGeometry x="195" y="310" width="130" height="100" as="geometry" />
        </mxCell>
        <mxCell id="HHM14vcZ1wzpaSUinclN-12" value="" style="edgeStyle=orthogonalEdgeStyle;rounded=0;orthogonalLoop=1;jettySize=auto;html=1;" edge="1" parent="WIyWlLk6GJQsqaUBKTNV-1" source="HHM14vcZ1wzpaSUinclN-6" target="HHM14vcZ1wzpaSUinclN-11">
          <mxGeometry relative="1" as="geometry" />
        </mxCell>
        <mxCell id="HHM14vcZ1wzpaSUinclN-6" value="修改用户权限成功" style="whiteSpace=wrap;html=1;strokeWidth=2;" vertex="1" parent="WIyWlLk6GJQsqaUBKTNV-1">
          <mxGeometry x="200" y="510" width="120" height="60" as="geometry" />
        </mxCell>
        <mxCell id="HHM14vcZ1wzpaSUinclN-8" value="Y" style="text;html=1;align=center;verticalAlign=middle;resizable=0;points=[];autosize=1;strokeColor=none;fillColor=none;" vertex="1" parent="WIyWlLk6GJQsqaUBKTNV-1">
          <mxGeometry x="265" y="428" width="30" height="30" as="geometry" />
        </mxCell>
        <mxCell id="HHM14vcZ1wzpaSUinclN-13" style="edgeStyle=orthogonalEdgeStyle;rounded=0;orthogonalLoop=1;jettySize=auto;html=1;entryX=0.576;entryY=-0.01;entryDx=0;entryDy=0;entryPerimeter=0;" edge="1" parent="WIyWlLk6GJQsqaUBKTNV-1" source="HHM14vcZ1wzpaSUinclN-9" target="HHM14vcZ1wzpaSUinclN-11">
          <mxGeometry relative="1" as="geometry">
            <mxPoint x="470" y="480" as="targetPoint" />
          </mxGeometry>
        </mxCell>
        <mxCell id="HHM14vcZ1wzpaSUinclN-9" value="无权修改用户权限" style="whiteSpace=wrap;html=1;strokeWidth=2;" vertex="1" parent="WIyWlLk6GJQsqaUBKTNV-1">
          <mxGeometry x="410" y="330" width="120" height="60" as="geometry" />
        </mxCell>
        <mxCell id="HHM14vcZ1wzpaSUinclN-11" value="结束" style="strokeWidth=2;html=1;shape=mxgraph.flowchart.terminator;whiteSpace=wrap;" vertex="1" parent="WIyWlLk6GJQsqaUBKTNV-1">
          <mxGeometry x="410" y="510" width="106" height="60" as="geometry" />
        </mxCell>
      </root>
    </mxGraphModel>
  </diagram>
</mxfile>
